<?xml version="1.0" encoding="utf-8"?>
<!-- Generator: Adobe Illustrator 22.1.0, SVG Export Plug-In . SVG Version: 6.00 Build 0)  -->
<svg version="1.1" id="Ebene_1" xmlns="http://www.w3.org/2000/svg" xmlns:xlink="http://www.w3.org/1999/xlink" x="0px" y="0px"
	 viewBox="0 0 710 557" style="enable-background:new 0 0 710 557;" xml:space="preserve">
<style type="text/css">
	.st0{fill:none;stroke:#2D2D2D;stroke-miterlimit:10;}
	.st1{stroke:#2D2D2D;stroke-width:0.5;}
	.st2{font-family:'CenturyGothic-Bold';}
	.st3{font-size:19.8px;}
	.st4{fill:#B9D585;stroke:#2D2D2D;stroke-width:0.5;stroke-miterlimit:10;}
	.st5{fill:#F4A3AB;stroke:#2D2D2D;stroke-width:0.5;stroke-miterlimit:10;}
	.st6{fill:#FED9A3;stroke:#2D2D2D;stroke-width:0.5;stroke-miterlimit:10;}
	.st7{fill:#FFFFFF;stroke:#2D2D2D;stroke-width:0.5;stroke-miterlimit:10;}
	.st8{fill:none;}
	.st9{fill:#1D1D1B;}
	.st10{font-size:20px;}
</style>
<g>
	<g>
		<line class="st0" x1="71.4" y1="428.1" x2="704.9" y2="428.1"/>
		<g>
			<g>
			</g>
			<g>
			</g>
		</g>
	</g>
	<g>
		<g>
			<text transform="matrix(1 0 0 1 11.5581 339.5893)" class="st1 st2 st3">5,250</text>
			<text transform="matrix(1 0 0 1 0.4692 239.9223)" class="st1 st2 st3">10,500</text>
			<text transform="matrix(1 0 0 1 0.4692 140.2543)" class="st1 st2 st3">15,750</text>
			<text transform="matrix(1 0 0 1 0.4692 40.5864)" class="st1 st2 st3">21,000</text>
		</g>
		<line class="st0" x1="71.4" y1="428.1" x2="71.4" y2="29.5"/>
		<g>
			<g>
			</g>
			<g>
			</g>
		</g>
	</g>
	<g>
		<g>
			<g>
				<rect x="684.6" y="38.3" class="st4" width="15" height="389.8"/>
				<rect x="614.2" y="225.1" class="st4" width="15" height="203.1"/>
				<rect x="543.8" y="228.4" class="st4" width="15" height="199.7"/>
				<rect x="473.5" y="254" class="st4" width="15" height="174.1"/>
				<rect x="403.1" y="255.7" class="st4" width="15" height="172.4"/>
				<rect x="332.7" y="321.6" class="st4" width="15" height="106.5"/>
				<rect x="262.3" y="317.9" class="st4" width="15" height="110.2"/>
				<rect x="191.9" y="408.8" class="st4" width="15" height="19.4"/>
				<rect x="121.5" y="409.9" class="st4" width="15" height="18.2"/>
			</g>
		</g>
		<g>
			<g>
				<rect x="669.7" y="61.2" class="st5" width="15" height="366.9"/>
				<rect x="599.3" y="235.4" class="st5" width="15" height="192.8"/>
				<rect x="528.9" y="242.9" class="st5" width="15" height="185.2"/>
				<rect x="458.5" y="264.2" class="st5" width="15" height="163.9"/>
				<rect x="388.1" y="266" class="st5" width="15" height="162.1"/>
				<rect x="317.7" y="326.2" class="st5" width="15" height="101.9"/>
				<rect x="247.3" y="324.2" class="st5" width="15" height="103.9"/>
				<rect x="176.9" y="409.8" class="st5" width="15" height="18.3"/>
				<rect x="106.5" y="410.6" class="st5" width="15" height="17.5"/>
			</g>
		</g>
		<g>
			<g>
				<rect x="654.7" y="85.2" class="st6" width="15" height="342.9"/>
				<rect x="584.3" y="250.1" class="st6" width="15" height="178"/>
				<rect x="513.9" y="257.3" class="st6" width="15" height="170.8"/>
				<rect x="443.5" y="275.1" class="st6" width="15" height="153.1"/>
				<rect x="373.1" y="278.8" class="st6" width="15" height="149.3"/>
				<rect x="302.8" y="331.5" class="st6" width="15" height="96.7"/>
				<rect x="232.4" y="331.8" class="st6" width="15" height="96.3"/>
				<rect x="162" y="412.1" class="st6" width="15" height="16"/>
				<rect x="91.6" y="411.4" class="st6" width="15" height="16.7"/>
			</g>
		</g>
		<g>
			<g>
				<rect x="639.8" y="111.2" class="st7" width="15" height="317"/>
				<rect x="569.4" y="263.5" class="st7" width="15" height="164.6"/>
				<rect x="499" y="268.8" class="st7" width="15" height="159.3"/>
				<rect x="428.6" y="285.5" class="st7" width="15" height="142.6"/>
				<rect x="358.2" y="290.7" class="st7" width="15" height="137.4"/>
				<rect x="287.8" y="337.7" class="st7" width="15" height="90.4"/>
				<rect x="217.4" y="339.5" class="st7" width="15" height="88.6"/>
				<rect x="147" y="414.7" class="st7" width="15" height="13.4"/>
				<rect x="76.6" y="412.3" class="st7" width="15" height="15.8"/>
			</g>
		</g>
	</g>
	<g>
		<g>
		</g>
		<g>
		</g>
		<g>
		</g>
		<g>
		</g>
	</g>
</g>
<rect x="243.2" y="455.6" class="st8" width="21.7" height="94.7"/>
<text transform="matrix(0 -1 1 0 257.9689 550.332)" class="st9 st2 st10">Harburg</text>
<rect x="313.7" y="439.3" class="st8" width="21.7" height="110.4"/>
<text transform="matrix(0 -1 1 0 328.4538 549.7207)" class="st9 st2 st10">Bergedorf</text>
<rect x="373.6" y="439" class="st8" width="46.5" height="110.4"/>
<text transform="matrix(0 -1 1 0 388.3615 549.332)"><tspan x="0" y="0" class="st9 st2 st10">Hamburg-</tspan><tspan x="0" y="22" class="st9 st2 st10">Mitte</tspan></text>
<rect x="447.9" y="440" class="st8" width="21.7" height="110.4"/>
<text transform="matrix(0 -1 1 0 462.6529 550.332)" class="st9 st2 st10">Eimsbüttel</text>
<rect x="522.5" y="442.6" class="st8" width="21.7" height="105.1"/>
<text transform="matrix(0 -1 1 0 537.2562 547.7207)" class="st9 st2 st10">Altona</text>
<rect x="587.3" y="439" class="st8" width="43.1" height="110.4"/>
<text transform="matrix(0 -1 1 0 602.0485 549.332)"><tspan x="0" y="0" class="st9 st2 st10">Hamburg-</tspan><tspan x="0" y="22" class="st9 st2 st10">Nord</tspan></text>
<rect x="666.3" y="439" class="st8" width="21.7" height="110.4"/>
<text transform="matrix(0 -1 1 0 681.0609 549.332)" class="st9 st2 st10">Wandsbek</text>
<rect x="174" y="436.3" class="st8" width="21.7" height="112.8"/>
<text transform="matrix(0 -1 1 0 188.6699 549.1328)" class="st9 st2 st10">Unbekannt</text>
<rect x="87.9" y="439" class="st8" width="49.2" height="110.2"/>
<text transform="matrix(0 -1 1 0 102.5894 549.1328)"><tspan x="0" y="0" class="st9 st2 st10">Ungültiger</tspan><tspan x="0" y="22" class="st9 st2 st10">Ortsteil</tspan></text>
</svg>
