<?xml version="1.0" encoding="UTF-8"?>
<svg width="45px" height="45px" viewBox="0 0 45 45" version="1.1" xmlns="http://www.w3.org/2000/svg" xmlns:xlink="http://www.w3.org/1999/xlink">
    <!-- Generator: Sketch 50.2 (55047) - http://www.bohemiancoding.com/sketch -->
    <title>facebook-logo-button</title>
    <desc>Created with Sketch.</desc>
    <defs></defs>
    <g id="Symbols" stroke="none" stroke-width="1" fill="none" fill-rule="evenodd">
        <g id="Footer" transform="translate(-375.000000, -89.000000)" fill="#000000" fill-rule="nonzero">
            <g id="facebook-logo-button" transform="translate(375.000000, 89.000000)">
                <path d="M22.5,0 C10.0935511,0 0,10.0935511 0,22.5 C0,34.9055426 10.0935511,45 22.5,45 C34.9055426,45 45,34.9055426 45,22.5 C45,10.0935511 34.9073552,0 22.5,0 Z M28.095545,23.2921131 L24.4349674,23.2921131 C24.4349674,29.140518 24.4349674,36.3393217 24.4349674,36.3393217 L19.0107146,36.3393217 C19.0107146,36.3393217 19.0107146,29.2103037 19.0107146,23.2921131 L16.4322686,23.2921131 L16.4322686,18.6808185 L19.0107146,18.6808185 L19.0107146,15.6981592 C19.0107146,13.5619915 20.0257794,10.2240595 24.4848143,10.2240595 L28.5042899,10.2394667 L28.5042899,14.7157214 C28.5042899,14.7157214 26.0617901,14.7157214 25.5868847,14.7157214 C25.1119794,14.7157214 24.43678,14.9531741 24.43678,15.9718642 L24.43678,18.6817248 L28.569544,18.6817248 L28.095545,23.2921131 Z" id="Shape"></path>
            </g>
        </g>
    </g>
</svg>