<?xml version="1.0" encoding="utf-8"?>
<!-- Generator: Adobe Illustrator 22.1.0, SVG Export Plug-In . SVG Version: 6.00 Build 0)  -->
<svg version="1.1" id="Ebene_1" xmlns="http://www.w3.org/2000/svg" xmlns:xlink="http://www.w3.org/1999/xlink" x="0px" y="0px"
	 viewBox="0 0 800 267" style="enable-background:new 0 0 800 267;" xml:space="preserve">
<style type="text/css">
	.herz{fill:#F3A2A9;}
	.hund{fill:#FDD8A2;}
	.hundst2{fill:#282828;}
	.hundst3{fill:none;}
	.hundst4{fill:#1D1D1B;}
	.font-b{font-family:'LibreFranklin-Bold'; font-size:20px;}
	.font-m{font-family:'LibreFranklin-Medium'; font-size:16px;}
</style>
<g>
	<path class="herz" d="M69,166.9c-0.2-6.9-2.4-26.3-19.1-26.3S31,160,30.8,166.9c-22.8-24,2.7-47.3,19.1-31.3
		C66.4,119.5,91.8,142.8,69,166.9z"/>
	<path class="hund" d="M60.8,144.5c1.8-1.1,4.1-2,6.2-1.2c1.8,0.8,2.9,2.5,3.5,4.2c0.8,1.7,2.3,3.3,2.5,5.2c0.2,1.7-1.2,4.2-3.2,3.8
		c-1.2-0.2-2.3-1.4-2.9-2.3L60.8,144.5z"/>
	<path class="hund" d="M69,166.9L69,166.9c-4.4,4.7-10.6,9.4-19.1,13.7c-8.5-4.5-14.6-9.1-19.1-13.7l0,0c0.2-6.9,2.4-26.3,19.1-26.3
		S68.8,160,69,166.9z"/>
	<g>
		<path class="hund" d="M49.3,140.5c-16.1,0.5-18.3,19.6-18.4,26.3l0,0c0.9,1,1.9,1.9,2.9,2.9C34,162.4,36.4,145.1,49.3,140.5z"/>
		<path class="hund" d="M39,144.5c-1.8-1.1-4.1-2-6.2-1.2c-1.8,0.8-2.9,2.5-3.5,4.2c-0.8,1.7-2.3,3.3-2.5,5.2
			c-0.2,1.7,1.2,4.2,3.2,3.8c1.2-0.2,2.3-1.4,2.9-2.3L39,144.5z"/>
	</g>
	<path class="hundst2" d="M30.2,167.4L30.2,167.4c4.8,5.1,11.2,9.7,19.3,14c0.2,0.1,0.2,0.1,0.4,0.1c0.2,0,0.3,0,0.4-0.1
		c4.9-2.6,9.2-5.3,12.9-8.2c0.4-0.3,0.5-0.8,0.2-1.2c-0.3-0.4-0.8-0.5-1.2-0.2c-3.5,2.7-7.6,5.4-12.3,7.8c-7.5-4-13.7-8.5-18.3-13.1
		v-0.1c0-0.6,0.1-1.2,0.1-1.8c0.3-3.4,0.9-6.9,2-10.2c1.1-3.2,2.8-6.4,5.3-8.8c1.4-1.4,3.2-2.5,5-3.2c1.8-0.7,3.7-1,5.9-1
		c4.2,0,7.6,1.3,10.4,3.8c2.7,2.5,4.5,5.8,5.7,9.3c1.3,3.8,2,7.9,2.1,11.9c0,0.1,0,0.2,0,0.2c-1.1,1.1-2.2,2.1-3.4,3.2
		c-0.4,0.3-0.4,0.8-0.1,1.2c0.3,0.4,0.8,0.4,1.2,0.1c1.4-1.1,2.6-2.3,3.7-3.5l0,0c5.7-6,8.9-12.6,9.2-18.9
		c0.3-5.5-1.6-10.6-5.4-14.3c-3.1-3.1-7.2-4.8-11.4-4.8c-4.4-0.1-8.6,1.7-12.2,5c-3.1-2.8-6.6-4.5-10.3-4.9s-7.2,0.5-10.4,2.5
		c-0.4,0.2-0.5,0.8-0.2,1.2c0.2,0.4,0.8,0.5,1.2,0.2c2.9-1.8,6-2.6,9.4-2.3c3.5,0.4,7,2.1,10,5c0.3,0.3,0.8,0.3,1.2,0
		c3.4-3.3,7.5-5.1,11.6-5.1c3.8,0.1,7.4,1.6,10.3,4.4c3.4,3.3,5.1,7.9,4.8,13c-0.3,5.4-2.9,11-7.4,16.3c0-0.4-0.1-0.8-0.1-1.1
		c-0.2-2.2-0.5-4.4-1.1-6.5c0-0.1-0.1-0.2-0.1-0.2c0.3,0.2,0.7,0.3,1.1,0.4c1.1,0.2,2.3-0.3,3-1.1c0.9-1,1.4-2.3,1.2-3.6
		c-0.2-1.4-0.8-2.6-1.6-3.7c-0.4-0.6-0.8-1.1-1-1.7c-0.8-1.8-1.9-3.8-4.1-4.7c-0.7-0.2-1.4-0.4-2.1-0.4c-1.4,0-2.8,0.5-4.3,1.3
		c-0.2-0.2-0.5-0.4-0.8-0.6c-2.9-2.1-6.6-3.1-10.2-3.1c-3.9,0-7.9,1.2-11,3.7c-1.5-0.9-2.9-1.3-4.3-1.3c-0.8,0-1.4,0.2-2.1,0.4
		c-2.2,0.8-3.2,2.9-4.1,4.7c-0.2,0.5-0.6,1.1-1,1.7c-0.7,1.1-1.4,2.3-1.6,3.7c-0.2,1.2,0.4,2.6,1.2,3.6c0.8,0.8,1.9,1.3,3,1.1
		c0.4-0.1,0.8-0.2,1.1-0.4c0,0.1-0.1,0.2-0.1,0.2c-0.4,1.4-0.7,2.9-0.8,4.5c-0.2,1.1-0.2,2.1-0.3,3.2c-4.6-5.3-7.2-10.9-7.4-16.3
		c-0.3-5.1,1.4-9.7,4.8-13c0.3-0.3,0.3-0.8,0-1.2c-0.3-0.3-0.8-0.3-1.2,0c-3.7,3.7-5.7,8.8-5.4,14.3
		C21.3,154.9,24.5,161.4,30.2,167.4z M65.2,143.8c0.5,0,1,0.1,1.4,0.3c1.6,0.6,2.5,2.3,3.1,3.8c0.3,0.7,0.7,1.3,1.1,2
		c0.6,1.1,1.2,2,1.4,3c0.1,0.8-0.2,1.7-0.8,2.3c-0.4,0.4-0.9,0.7-1.4,0.6c-0.7-0.2-1.5-0.8-2.3-1.8l0,0v-0.1
		c-0.4-1.1-0.8-2.1-1.3-3.1c-1-2.1-2.3-4.1-3.8-5.7c-0.1-0.1-0.2-0.2-0.2-0.2C63.3,144.1,64.3,143.8,65.2,143.8z M29.9,155.6
		c-0.6,0.1-1.1-0.2-1.4-0.6c-0.5-0.6-0.9-1.5-0.8-2.3c0.1-1,0.7-2,1.4-3c0.4-0.6,0.8-1.3,1.1-2c0.7-1.5,1.5-3.1,3.1-3.8
		c0.5-0.2,0.9-0.3,1.4-0.3c0.9,0,1.9,0.3,3,0.8c-1.1,1.1-2,2.3-2.9,3.7c-1.1,1.7-1.9,3.5-2.5,5.4l0,0
		C31.5,154.8,30.6,155.5,29.9,155.6z"/>
	<path class="hundst2" d="M41.1,153v1.4c0,0.5,0.4,0.8,0.8,0.8c0.5,0,0.8-0.4,0.8-0.8V153c0-0.5-0.4-0.8-0.8-0.8
		C41.5,152.2,41.1,152.5,41.1,153z"/>
	<path class="hundst2" d="M57.1,153v1.4c0,0.5,0.4,0.8,0.8,0.8c0.5,0,0.8-0.4,0.8-0.8V153c0-0.5-0.4-0.8-0.8-0.8
		C57.4,152.2,57.1,152.5,57.1,153z"/>
	<path class="hundst2" d="M49.9,155.5c0.8,0,1.5-0.2,2.2-0.5c0.7-0.3,0.5-1.4-0.3-1.4H48c-0.8,0-1,1.1-0.3,1.4
		C48.4,155.3,49.1,155.5,49.9,155.5z"/>
	<path class="hundst2" d="M47,156.6c-0.3-0.4-0.8-0.4-1.2-0.1c-0.4,0.3-0.4,0.8-0.1,1.2c0.6,0.7,1.4,1.1,2.4,1.1c0.6,0,1.3-0.2,1.7-0.5
		c0.5,0.3,1.1,0.5,1.7,0.5c0.9,0,1.8-0.4,2.4-1.1c0.3-0.4,0.3-0.9-0.1-1.2c-0.4-0.3-0.9-0.3-1.2,0.1c-0.3,0.3-0.7,0.5-1.1,0.5
		s-0.8-0.2-1.1-0.5c-0.2-0.2-0.4-0.3-0.6-0.3c-0.2,0-0.5,0.1-0.6,0.3c-0.3,0.3-0.7,0.5-1.1,0.5C47.7,157.1,47.3,156.9,47,156.6z"/>
</g>
<g>
	<path class="herz" d="M262.6,161.8c-0.3-9.1-3.3-35.2-25.6-35.2s-25.3,26.1-25.6,35.2C181,129.6,215,98.4,237,119.9
		C259,98.5,293.1,129.6,262.6,161.8z"/>
	<path class="hund" d="M251.7,131.8c2.4-1.5,5.4-2.7,8.2-1.6c2.5,1,3.8,3.3,4.8,5.7c0.9,2.3,3,4.4,3.3,6.9c0.3,2.4-1.7,5.6-4.3,5.1
		c-1.6-0.3-3-1.8-3.9-3L251.7,131.8z"/>
	<path class="hund" d="M262.6,161.8L262.6,161.8c-5.9,6.3-14.2,12.5-25.6,18.5c-11.3-5.9-19.6-12.2-25.6-18.5l0,0
		c0.3-9.1,3.3-35.2,25.6-35.2S262.3,152.7,262.6,161.8z"/>
	<g>
		<path class="hund" d="M236.2,126.6c-21.5,0.7-24.5,26.2-24.6,35.2l0,0c1.2,1.3,2.5,2.5,4,3.9C215.9,155.7,218.9,132.8,236.2,126.6z
			"/>
		<path class="hund" d="M222.5,131.8c-2.4-1.5-5.4-2.7-8.2-1.6c-2.5,1-3.8,3.3-4.8,5.7c-0.9,2.3-3,4.4-3.3,6.9
			c-0.3,2.4,1.7,5.6,4.3,5.1c1.6-0.3,3-1.8,3.9-3L222.5,131.8z"/>
	</g>
	<path class="hundst2" d="M210.6,162.6C210.6,162.6,210.7,162.6,210.6,162.6c6.4,6.8,15.1,13,25.9,18.7c0.2,0.1,0.3,0.2,0.5,0.2
		c0.2,0,0.3-0.1,0.5-0.2c6.5-3.4,12.4-7.1,17.3-10.9c0.5-0.4,0.6-1.1,0.2-1.6c-0.4-0.5-1.1-0.6-1.6-0.2c-4.7,3.6-10.2,7.2-16.4,10.4
		c-10.2-5.3-18.3-11.3-24.4-17.6c0-0.1,0-0.1,0-0.2c0-0.8,0.1-1.6,0.2-2.5c0.3-4.5,1.2-9.2,2.7-13.6c1.5-4.4,3.7-8.6,7-11.9
		c1.9-1.9,4.2-3.3,6.7-4.2c2.4-0.8,5-1.4,7.9-1.4c5.6,0,10.2,1.7,14,5.1c3.6,3.3,6.1,7.8,7.6,12.4c1.8,5.1,2.6,10.5,2.8,15.9
		c0,0.1,0,0.2,0,0.3c-1.4,1.4-2.9,2.9-4.5,4.2c-0.5,0.4-0.5,1.1-0.1,1.6c0.4,0.5,1.1,0.5,1.6,0.1c1.8-1.5,3.5-3.1,5-4.7l0,0
		c7.6-8,11.9-16.8,12.4-25.3c0.4-7.5-2.1-14.2-7.1-19.1c-4.1-4.1-9.6-6.4-15.2-6.4c-5.8-0.1-11.5,2.2-16.3,6.7
		c-4.1-3.7-8.9-6-13.9-6.5c-4.9-0.5-9.7,0.7-14,3.4c-0.5,0.3-0.7,1-0.3,1.6c0.3,0.5,1,0.7,1.6,0.3c3.8-2.5,8.1-3.5,12.5-3
		c4.7,0.5,9.4,2.8,13.3,6.7c0.4,0.4,1.2,0.4,1.6,0c4.6-4.5,10-6.9,15.5-6.8c5.1,0.1,10,2.1,13.7,5.8c4.5,4.5,6.9,10.7,6.4,17.4
		c-0.3,7.3-3.8,14.7-9.9,21.8c0-0.5-0.1-1-0.1-1.4c-0.3-3-0.7-5.8-1.4-8.7c0-0.1-0.1-0.3-0.1-0.3c0.4,0.3,0.9,0.4,1.4,0.5
		c1.5,0.3,3-0.3,4.1-1.5c1.2-1.3,1.8-3.1,1.7-4.8c-0.2-1.9-1.2-3.5-2.1-5c-0.5-0.8-0.9-1.5-1.3-2.3c-1-2.5-2.5-5.1-5.4-6.3
		c-0.8-0.3-1.8-0.5-2.8-0.5c-1.8,0-3.7,0.6-5.8,1.8c-0.3-0.3-0.7-0.5-1-0.8c-4-2.9-8.8-4.1-13.7-4.1c-5.3,0-10.6,1.6-14.7,5
		c-2-1.2-4-1.8-5.8-1.8c-1,0-1.9,0.2-2.8,0.5c-2.9,1.2-4.4,3.8-5.4,6.3c-0.3,0.8-0.8,1.5-1.3,2.3c-0.9,1.5-1.9,3.1-2.1,5
		c-0.2,1.7,0.5,3.6,1.7,4.8c1,1.1,2.5,1.8,4.1,1.5c0.5-0.1,1-0.3,1.4-0.5c0,0.1-0.1,0.3-0.1,0.3c-0.5,1.9-0.8,3.9-1.1,5.9
		c-0.2,1.4-0.3,2.8-0.4,4.2c-6.1-7.1-9.6-14.6-9.9-21.8c-0.3-6.8,1.9-13,6.4-17.4c0.4-0.4,0.4-1.2,0-1.6c-0.4-0.4-1.2-0.4-1.6,0
		c-5,4.9-7.5,11.7-7.1,19.1C198.7,145.8,203,154.5,210.6,162.6z M257.5,130.9c0.7,0,1.4,0.1,1.9,0.3c2.1,0.8,3.3,3,4.1,5
		c0.4,0.9,0.9,1.8,1.4,2.6c0.8,1.4,1.6,2.7,1.8,4c0.1,1-0.3,2.3-1.1,3c-0.5,0.5-1.2,0.9-1.9,0.8c-0.9-0.2-2-1-3-2.5l0,0v-0.1
		c-0.5-1.4-1-2.8-1.7-4.1c-1.4-2.8-3-5.4-5.2-7.7c-0.1-0.1-0.2-0.3-0.3-0.3C255,131.3,256.3,130.9,257.5,130.9z M210.3,146.8
		c-0.8,0.2-1.4-0.3-1.9-0.8c-0.8-0.8-1.2-2-1.1-3c0.1-1.4,0.9-2.6,1.8-4c0.5-0.8,1-1.7,1.4-2.6c0.8-2,2-4.1,4.1-5
		c0.6-0.3,1.3-0.3,1.9-0.3c1.2,0,2.5,0.3,4,1.1c-1.4,1.4-2.7,3.1-3.8,4.9c-1.4,2.3-2.5,4.7-3.4,7.4l0,0
		C212.3,145.7,211.2,146.7,210.3,146.8z"/>
	<path class="hundst2" d="M225.3,143.4v1.9c0,0.6,0.5,1.1,1.1,1.1c0.6,0,1.1-0.5,1.1-1.1v-1.9c0-0.6-0.5-1.1-1.1-1.1
		C225.8,142.2,225.3,142.7,225.3,143.4z"/>
	<path class="hundst2" d="M246.6,143.4v1.9c0,0.6,0.5,1.1,1.1,1.1c0.6,0,1.1-0.5,1.1-1.1v-1.9c0-0.6-0.5-1.1-1.1-1.1
		C247.1,142.2,246.6,142.7,246.6,143.4z"/>
	<path class="hundst2" d="M237,146.6c1,0,2-0.2,2.9-0.6c0.9-0.4,0.7-1.8-0.3-1.8h-5.1c-1,0-1.3,1.4-0.3,1.8
		C235,146.3,236,146.6,237,146.6z"/>
	<path class="hundst2" d="M233.2,148.1c-0.4-0.5-1.1-0.5-1.6-0.1c-0.5,0.4-0.5,1.1-0.1,1.6c0.8,0.9,1.9,1.4,3.2,1.4
		c0.8,0,1.7-0.3,2.4-0.7c0.7,0.4,1.5,0.7,2.4,0.7c1.3,0,2.5-0.5,3.2-1.4c0.4-0.5,0.3-1.2-0.1-1.6c-0.5-0.4-1.2-0.3-1.6,0.1
		c-0.3,0.4-0.9,0.7-1.5,0.7c-0.6,0-1.1-0.3-1.5-0.7c-0.3-0.3-0.5-0.4-0.8-0.4c-0.3,0-0.7,0.2-0.8,0.4c-0.3,0.4-0.9,0.7-1.5,0.7
		C234.1,148.8,233.6,148.5,233.2,148.1z"/>
</g>
<g>
	<path class="herz" d="M463.2,158.5c-0.2-10.8-3.9-41.3-29.9-41.3c-26,0-29.7,30.6-30,41.3c-35.7-37.7,4.2-74.3,29.9-49.1
		C458.9,84.3,498.9,120.8,463.2,158.5z"/>
	<path class="hund" d="M450.3,123.4c2.8-1.8,6.4-3.1,9.7-1.9c2.9,1.2,4.4,3.9,5.6,6.6c1.2,2.6,3.6,5.2,3.9,8.1c0.2,2.8-2,6.5-5.1,6
		c-1.9-0.3-3.5-2.1-4.6-3.6L450.3,123.4z"/>
	<path class="hund" d="M463.2,158.5L463.2,158.5c-6.9,7.3-16.7,14.6-29.9,21.6c-13.2-7-23-14.3-29.9-21.6l0,0
		c0.2-10.8,3.9-41.3,29.9-41.3C459.3,117.2,462.9,147.8,463.2,158.5z"/>
	<g>
		<path class="hund" d="M432.2,117.3c-25.1,0.8-28.7,30.6-28.9,41.2l0,0c1.4,1.5,3,3,4.7,4.5C408.4,151.5,412,124.5,432.2,117.3z"/>
		<path class="hund" d="M416.1,123.4c-2.8-1.8-6.4-3.1-9.7-1.9c-2.9,1.2-4.4,3.9-5.6,6.6c-1.2,2.6-3.6,5.2-3.9,8.1
			c-0.2,2.8,2,6.5,5.1,6c1.9-0.3,3.5-2.1,4.6-3.6L416.1,123.4z"/>
	</g>
	<path class="hundst2" d="M402.3,159.4L402.3,159.4c7.5,7.9,17.7,15.3,30.3,21.9c0.2,0.1,0.4,0.2,0.7,0.2s0.4-0.1,0.7-0.2
		c7.6-4,14.5-8.3,20.3-12.8c0.6-0.4,0.7-1.3,0.2-1.9c-0.4-0.6-1.3-0.7-1.9-0.2c-5.5,4.3-12,8.4-19.2,12.2
		c-11.8-6.2-21.4-13.2-28.6-20.6c0-0.1,0-0.1,0-0.2c0-1,0.1-1.9,0.2-2.9c0.4-5.3,1.4-10.8,3.1-15.9c1.7-5.1,4.4-10.1,8.2-13.9
		c2.2-2.2,4.9-3.9,7.9-5c2.8-1.1,5.8-1.6,9.2-1.6c6.5,0,12,2,16.3,5.9c4.3,3.9,7.1,9.1,9,14.5c2.1,6,3,12.3,3.3,18.7
		c0,0.1,0,0.2,0,0.3c-1.6,1.7-3.4,3.4-5.3,5c-0.6,0.5-0.6,1.3-0.2,1.9c0.5,0.6,1.3,0.6,1.9,0.2c2.1-1.8,4-3.7,5.8-5.6l0,0
		c9-9.4,14-19.7,14.5-29.7c0.5-8.7-2.5-16.7-8.4-22.4c-4.8-4.8-11.3-7.5-17.9-7.6c-6.9-0.1-13.5,2.6-19.1,7.8
		c-4.8-4.4-10.4-7.1-16.3-7.6c-5.8-0.6-11.4,0.7-16.3,3.9c-0.7,0.4-0.8,1.2-0.4,1.8c0.4,0.7,1.2,0.8,1.8,0.4c4.4-2.9,9.5-4,14.6-3.5
		c5.6,0.6,11,3.3,15.6,7.8c0.5,0.5,1.3,0.5,1.9,0c5.3-5.3,11.7-8,18.2-7.9c6,0.1,11.7,2.5,16,6.8c5.3,5.3,8,12.5,7.6,20.4
		c-0.4,8.5-4.4,17.3-11.7,25.6c0-0.6-0.1-1.2-0.2-1.7c-0.3-3.5-0.8-6.8-1.6-10.2c0-0.2-0.1-0.2-0.1-0.4c0.5,0.2,1.1,0.5,1.7,0.6
		c1.7,0.3,3.5-0.4,4.7-1.7c1.4-1.5,2.1-3.7,2-5.7c-0.2-2.2-1.3-4-2.5-5.8c-0.6-0.9-1.2-1.8-1.5-2.7c-1.2-2.9-3-6-6.3-7.3
		c-1-0.4-2.1-0.6-3.3-0.6c-2.1,0-4.4,0.7-6.7,2.1c-0.4-0.3-0.8-0.7-1.2-0.9c-4.7-3.4-10.4-4.9-16-4.9c-6.2,0-12.4,1.9-17.3,5.8
		c-2.4-1.4-4.7-2.1-6.7-2.1c-1.2,0-2.2,0.2-3.3,0.6c-3.4,1.3-5.1,4.4-6.3,7.3c-0.4,0.9-0.9,1.7-1.5,2.7c-1.1,1.8-2.2,3.7-2.5,5.8
		c-0.2,2,0.6,4.2,2,5.7c1.2,1.3,3,2.1,4.7,1.7c0.6-0.1,1.2-0.3,1.7-0.6c0,0.2-0.1,0.2-0.1,0.4c-0.6,2.3-1.1,4.6-1.3,6.9
		c-0.2,1.6-0.4,3.3-0.5,5c-7.1-8.3-11.2-17.1-11.7-25.6c-0.4-7.9,2.3-15.1,7.6-20.4c0.5-0.5,0.5-1.4,0-1.9c-0.5-0.5-1.4-0.5-1.9,0
		c-5.8,5.8-8.8,13.7-8.4,22.4C388.3,139.7,393.3,150,402.3,159.4z M457.2,122.4c0.8,0,1.6,0.2,2.3,0.4c2.5,1,3.9,3.5,4.8,5.9
		c0.5,1.1,1.1,2.1,1.6,3c1,1.6,1.9,3.1,2.1,4.7c0.1,1.2-0.4,2.7-1.2,3.6c-0.6,0.7-1.4,1.1-2.3,0.9c-1.2-0.2-2.4-1.2-3.6-2.9l0,0V138
		c-0.6-1.6-1.2-3.3-2-4.8c-1.6-3.3-3.5-6.4-6.1-9c-0.1-0.2-0.2-0.2-0.3-0.4C454.2,122.8,455.8,122.4,457.2,122.4z M401.8,141
		c-0.9,0.2-1.7-0.2-2.3-0.9c-0.8-0.9-1.4-2.5-1.2-3.6c0.2-1.6,1.1-3.1,2.1-4.7c0.6-1,1.2-2,1.6-3c1-2.4,2.4-4.9,4.8-5.9
		c0.7-0.2,1.5-0.4,2.3-0.4c1.4,0,3,0.4,4.7,1.3c-1.7,1.7-3.2,3.7-4.4,5.8c-1.6,2.7-3,5.6-3.9,8.5l0,0
		C404.3,139.7,403,140.7,401.8,141z"/>
	<path class="hundst2" d="M419.4,136.8v2.2c0,0.7,0.6,1.3,1.3,1.3s1.3-0.6,1.3-1.3v-2.2c0-0.7-0.6-1.3-1.3-1.3S419.4,136.1,419.4,136.8z
		"/>
	<path class="hundst2" d="M444.4,136.8v2.2c0,0.7,0.6,1.3,1.3,1.3c0.7,0,1.3-0.6,1.3-1.3v-2.2c0-0.7-0.6-1.3-1.3-1.3
		C444.9,135.5,444.4,136.1,444.4,136.8z"/>
	<path class="hundst2" d="M433.2,140.7c1.2,0,2.4-0.2,3.4-0.7c1.1-0.5,0.7-2.1-0.4-2.1h-5.9c-1.2,0-1.5,1.6-0.4,2.1
		C430.8,140.5,432,140.7,433.2,140.7z"/>
	<path class="hundst2" d="M428.7,142.5c-0.5-0.6-1.3-0.6-1.9-0.2c-0.6,0.5-0.6,1.3-0.2,1.9c0.9,1.1,2.3,1.6,3.8,1.6c1,0,2-0.2,2.8-0.8
		c0.8,0.5,1.7,0.8,2.8,0.8c1.5,0,2.8-0.6,3.8-1.6c0.5-0.6,0.4-1.4-0.2-1.9c-0.6-0.5-1.4-0.4-1.9,0.2c-0.4,0.5-1.1,0.7-1.7,0.7
		c-0.7,0-1.3-0.2-1.7-0.7c-0.2-0.2-0.7-0.5-1-0.5c-0.4,0-0.7,0.2-1,0.5c-0.4,0.5-1.1,0.7-1.7,0.7C429.7,143.3,429.1,143,428.7,142.5
		z"/>
</g>
<g>
	<path class="herz" d="M684.4,154.3c-0.3-12.7-4.6-49-35.5-49c-30.9,0-35.2,36.2-35.5,49c-42.4-44.7,5-88.1,35.5-58.3
		C679.4,66.3,726.8,109.6,684.4,154.3z"/>
	<path class="hund" d="M669.2,112.6c3.3-2.1,7.5-3.8,11.5-2.2c3.5,1.3,5.3,4.6,6.7,7.9c1.3,3.1,4.2,6.2,4.6,9.7
		c0.3,3.3-2.3,7.7-6.1,7.1c-2.3-0.4-4.2-2.4-5.4-4.2L669.2,112.6z"/>
	<path class="hund" d="M684.4,154.3L684.4,154.3c-8.2,8.6-19.8,17.4-35.5,25.6c-15.7-8.3-27.3-17-35.5-25.6l0,0
		c0.3-12.7,4.6-49,35.5-49C679.9,105.3,684.1,141.6,684.4,154.3z"/>
	<g>
		<path class="hund" d="M647.7,105.3c-29.9,0.9-34,36.3-34.3,48.9l0,0c1.7,1.8,3.5,3.5,5.5,5.3C619.5,145.8,623.7,113.9,647.7,105.3z
			"/>
		<path class="hund" d="M628.6,112.6c-3.3-2.1-7.5-3.8-11.5-2.2c-3.5,1.3-5.3,4.6-6.7,7.9c-1.3,3.1-4.2,6.2-4.6,9.7
			c-0.3,3.3,2.3,7.7,6.1,7.1c2.3-0.4,4.2-2.4,5.4-4.2L628.6,112.6z"/>
	</g>
	<path class="hundst2" d="M612.3,155.4L612.3,155.4c8.9,9.4,21,18.1,35.9,25.9c0.2,0.2,0.5,0.2,0.7,0.2s0.5-0.1,0.7-0.2
		c9-4.7,17.1-9.9,24-15.2c0.7-0.6,0.8-1.5,0.3-2.2c-0.5-0.7-1.5-0.8-2.2-0.3c-6.5,5.1-14.2,10-22.8,14.5
		c-14.1-7.5-25.5-15.6-33.9-24.5c0-0.1,0-0.2,0-0.2c0.1-1.1,0.1-2.3,0.2-3.4c0.6-6.3,1.7-12.8,3.7-18.9c2-6.1,5.1-12,9.8-16.4
		c2.7-2.6,5.8-4.6,9.4-5.9c3.3-1.3,6.9-1.8,10.9-1.8c7.7,0,14.2,2.4,19.4,7c5.1,4.6,8.4,10.8,10.6,17.2c2.4,7.1,3.6,14.6,3.9,22.1
		c0,0.2,0,0.3,0,0.4c-1.9,2-4,4-6.3,5.9c-0.6,0.6-0.7,1.6-0.2,2.2c0.6,0.6,1.6,0.7,2.2,0.2c2.5-2.1,4.8-4.4,6.9-6.6l0,0
		c10.6-11.2,16.6-23.4,17.2-35.1c0.6-10.3-3-19.7-9.9-26.6c-5.8-5.7-13.3-8.9-21.2-9c-8.2-0.1-16,3.1-22.7,9.2
		c-5.7-5.3-12.4-8.3-19.3-9c-6.8-0.7-13.5,0.9-19.4,4.6c-0.7,0.5-0.9,1.4-0.5,2.2c0.5,0.7,1.4,0.9,2.2,0.5
		c5.3-3.4,11.3-4.8,17.4-4.2c6.6,0.7,13.1,3.9,18.6,9.2c0.6,0.6,1.6,0.6,2.2,0c6.4-6.2,13.8-9.4,21.5-9.4c7.1,0.1,13.8,2.9,19,8.1
		c6.3,6.2,9.5,14.8,9,24.1c-0.6,10.1-5.3,20.5-13.8,30.4c-0.1-0.7-0.1-1.3-0.2-2c-0.4-4.1-1-8.1-2-12.1c0-0.2-0.1-0.3-0.1-0.5
		c0.6,0.3,1.3,0.6,2,0.7c2.1,0.4,4.2-0.5,5.6-2c1.7-1.8,2.5-4.4,2.3-6.7c-0.2-2.6-1.6-4.8-2.9-6.9c-0.7-1.1-1.3-2.2-1.8-3.2
		c-1.4-3.4-3.5-7.1-7.5-8.6c-1.2-0.5-2.5-0.7-3.9-0.7c-2.5,0-5.2,0.9-8,2.4c-0.5-0.4-0.9-0.8-1.4-1.1c-5.5-4-12.3-5.8-19-5.8
		c-7.4,0-14.7,2.2-20.4,6.9c-2.8-1.7-5.5-2.4-8-2.4c-1.3,0-2.7,0.2-3.9,0.7c-4,1.6-6.1,5.3-7.5,8.6c-0.5,1-1.1,2.1-1.8,3.2
		c-1.3,2.1-2.7,4.3-2.9,6.9c-0.2,2.3,0.7,5,2.3,6.7c1.4,1.6,3.5,2.4,5.6,2c0.7-0.2,1.4-0.4,2-0.7c0,0.2-0.1,0.3-0.1,0.5
		c-0.6,2.7-1.3,5.4-1.5,8.2c-0.2,2-0.5,3.9-0.6,5.9c-8.5-9.8-13.3-20.3-13.8-30.4c-0.5-9.4,2.7-17.9,9-24.1c0.6-0.6,0.6-1.7,0-2.2
		c-0.6-0.6-1.7-0.6-2.2,0c-6.9,6.8-10.5,16.3-9.9,26.6C595.7,132,601.7,144.1,612.3,155.4z M677.4,111.4c0.9,0,1.9,0.2,2.7,0.5
		c3,1.2,4.6,4.2,5.7,7c0.6,1.3,1.3,2.4,2,3.6c1.2,1.9,2.3,3.7,2.4,5.6c0.2,1.4-0.5,3.1-1.5,4.2c-0.7,0.8-1.7,1.3-2.8,1.1
		c-1.3-0.2-2.8-1.4-4.2-3.5c0,0,0,0,0-0.1s0-0.1-0.1-0.2c-0.7-2-1.4-3.9-2.4-5.7c-1.9-3.9-4.2-7.5-7.2-10.7
		c-0.2-0.2-0.3-0.3-0.5-0.5C673.8,111.9,675.7,111.4,677.4,111.4z M611.8,133.4c-1,0.2-2-0.3-2.8-1.1c-1-1.1-1.7-2.9-1.5-4.2
		c0.2-1.9,1.3-3.6,2.4-5.6c0.7-1.2,1.5-2.4,2-3.6c1.2-2.8,2.8-5.8,5.7-7c0.9-0.3,1.7-0.5,2.7-0.5c1.7,0,3.5,0.6,5.6,1.6
		c-2,2-3.8,4.4-5.3,6.8c-2,3.2-3.5,6.6-4.7,10.1c0,0,0,0,0,0.1C614.6,132,613.1,133.2,611.8,133.4z"/>
	<path class="hundst2" d="M632.6,128.6v2.7c0,0.9,0.7,1.6,1.6,1.6c0.9,0,1.6-0.7,1.6-1.6v-2.7c0-0.9-0.7-1.6-1.6-1.6
		C633.3,127,632.6,127.7,632.6,128.6z"/>
	<path class="hundst2" d="M662.1,128.6v2.7c0,0.9,0.7,1.6,1.6,1.6c0.9,0,1.6-0.7,1.6-1.6v-2.7c0-0.9-0.7-1.6-1.6-1.6
		C662.8,127,662.1,127.7,662.1,128.6z"/>
	<path class="hundst2" d="M648.9,133.1c1.4,0,2.8-0.3,4-0.8c1.3-0.6,0.9-2.4-0.5-2.4h-7c-1.4,0-1.8,1.9-0.5,2.4
		C646.2,132.8,647.5,133.1,648.9,133.1z"/>
	<path class="hundst2" d="M643.6,135.2c-0.6-0.6-1.6-0.7-2.2-0.2s-0.7,1.6-0.2,2.2c1.1,1.3,2.8,2,4.5,2c1.2,0,2.4-0.3,3.3-0.9
		c0.9,0.6,2.1,0.9,3.3,0.9c1.7,0,3.4-0.7,4.5-2c0.6-0.6,0.5-1.7-0.2-2.2s-1.7-0.5-2.2,0.2c-0.5,0.6-1.3,0.9-2.1,0.9
		c-0.9,0-1.6-0.3-2.1-0.9c-0.3-0.3-0.7-0.6-1.2-0.6s-0.9,0.2-1.2,0.6c-0.5,0.6-1.3,0.9-2.1,0.9C644.8,136.2,644.1,135.9,643.6,135.2
		z"/>
</g>
<g>
	<rect x="614.7" y="44.8" class="hundst3" width="70.7" height="24.5"/>
	<text transform="matrix(1 0 0 1 627.6211 59.5444)" class="hundst4 font-b">2015</text>
</g>
<g>
	<rect x="401.1" y="45.7" class="hundst3" width="66.7" height="24.5"/>
	<text transform="matrix(1 0 0 1 412.0156 60.4199)" class="hundst4 font-b">2014</text>
</g>
<g>
	<rect x="205.3" y="46" class="hundst3" width="66.3" height="24.5"/>
	<text transform="matrix(1 0 0 1 216.0269 60.7627)" class="hundst4 font-b">2013</text>
</g>
<g>
	<rect x="11.2" y="46" class="hundst3" width="79" height="24.5"/>
	<text transform="matrix(1 0 0 1 28.3394 60.7617)" class="hundst4 font-b">2012</text>
</g>
<rect x="-7" y="222" class="hundst3" width="102.5" height="27.6"/>
<text transform="matrix(1 0 0 1 21.751 210.7977)" class="hundst4 font-m">59.479</text>
<rect x="173.5" y="223.1" class="hundst3" width="102.5" height="27.6"/>
<text transform="matrix(1 0 0 1 208.4563 211.7977)" class="hundst4 font-m
	">64.250</text>
<g>
	<rect x="382.8" y="196.7" class="hundst3" width="102.5" height="27.6"/>
	<text transform="matrix(1 0 0 1 403.2615 211.4592)" class="hundst4 font-m">69.138</text>
</g>
<g>
	<rect x="598.8" y="196.7" class="hundst3" width="102.5" height="27.6"/>
	<text transform="matrix(1 0 0 1 619.2416 211.4936)" class="hundst4 font-m">73.394</text>
</g>
</svg>
