<?xml version="1.0" encoding="UTF-8"?>
<svg width="42px" height="42px" viewBox="0 0 42 42" version="1.1" xmlns="http://www.w3.org/2000/svg" xmlns:xlink="http://www.w3.org/1999/xlink">
    <!-- Generator: Sketch 50.2 (55047) - http://www.bohemiancoding.com/sketch -->
    <title>instagram-logo</title>
    <desc>Created with Sketch.</desc>
    <defs></defs>
    <g id="Symbols" stroke="none" stroke-width="1" fill="none" fill-rule="evenodd">
        <g id="Footer" transform="translate(-377.000000, -158.000000)" fill="#000000" fill-rule="nonzero">
            <g id="instagram-logo" transform="translate(377.000000, 158.000000)">
                <path d="M30.40927,0 L11.5902332,0 C5.19938248,0 0,5.1996309 0,11.5904816 L0,30.4095184 C0,36.8006175 5.19938248,42 11.5902332,42 L30.40927,42 C36.8006175,42 42,36.8003691 42,30.4095184 L42,11.5904816 C42.0002484,5.1996309 36.8006175,0 30.40927,0 Z M38.2738049,30.4095184 C38.2738049,34.7458565 34.7458565,38.2735564 30.4095184,38.2735564 L11.5902332,38.2735564 C7.25414345,38.2738049 3.72644355,34.7458565 3.72644355,30.4095184 L3.72644355,11.5904816 C3.72644355,7.25439188 7.25414345,3.72644355 11.5902332,3.72644355 L30.40927,3.72644355 C34.7456081,3.72644355 38.2735564,7.25439188 38.2735564,11.5904816 L38.2735564,30.4095184 L38.2738049,30.4095184 Z" id="Shape"></path>
                <path d="M20.5,10 C14.7102128,10 10,14.7103209 10,20.500241 C10,26.2899201 14.7102128,31 20.5,31 C26.2897872,31 31,26.2899201 31,20.500241 C31,14.7103209 26.2897872,10 20.5,10 Z M20.5,27.3842225 C16.7040149,27.3842225 13.6154535,24.2960723 13.6154535,20.5 C13.6154535,16.7036867 16.7037738,13.6152954 20.5,13.6152954 C24.2962262,13.6152954 27.3845465,16.7036867 27.3845465,20.5 C27.3845465,24.2960723 24.2959851,27.3842225 20.5,27.3842225 Z" id="Shape"></path>
                <path d="M31.5,7 C30.8431818,7 30.1979545,7.26590909 29.7340909,7.73181818 C29.2679545,8.19545455 29,8.84090909 29,9.5 C29,10.1570455 29.2681818,10.8022727 29.7340909,11.2681818 C30.1977273,11.7318182 30.8431818,12 31.5,12 C32.1590909,12 32.8022727,11.7318182 33.2681818,11.2681818 C33.7340909,10.8022727 34,10.1568182 34,9.5 C34,8.84090909 33.7340909,8.19545455 33.2681818,7.73181818 C32.8045455,7.26590909 32.1590909,7 31.5,7 Z" id="Shape"></path>
            </g>
        </g>
    </g>
</svg>