<?xml version="1.0" encoding="utf-8"?>
<!-- Generator: Adobe Illustrator 22.1.0, SVG Export Plug-In . SVG Version: 6.00 Build 0)  -->
<svg version="1.1" id="Ebene_1" xmlns="http://www.w3.org/2000/svg" xmlns:xlink="http://www.w3.org/1999/xlink" x="0px" y="0px"
	 viewBox="0 0 1366 768" style="enable-background:new 0 0 1366 768;" xml:space="preserve">
<style type="text/css">
	.st0{fill:none;stroke:#2D2D2D;stroke-miterlimit:10;}
	.st1{stroke:#2D2D2D;stroke-width:0.5;}
	.st2{font-family:'CenturyGothic-Bold';}
	.st3{font-size:19.8px;}
	.st4{fill:#B9D585;stroke:#2D2D2D;stroke-width:0.5;stroke-miterlimit:10;}
	.st5{fill:#F4A3AB;stroke:#2D2D2D;stroke-width:0.5;stroke-miterlimit:10;}
	.st6{fill:#FED9A3;stroke:#2D2D2D;stroke-width:0.5;stroke-miterlimit:10;}
	.st7{fill:#FFFFFF;stroke:#2D2D2D;stroke-width:0.5;stroke-miterlimit:10;}
	.st8{fill:none;}
	.st9{fill:#1D1D1B;}
	.st10{font-size:20px;}
</style>
<g>
	<g>
		<line class="st0" x1="102.4" y1="480.1" x2="735.9" y2="480.1"/>
		<g>
			<g>
			</g>
			<g>
			</g>
		</g>
	</g>
	<g>
		<g>
			<text transform="matrix(1 0 0 1 42.5581 391.5893)" class="st1 st2 st3">5,250</text>
			<text transform="matrix(1 0 0 1 31.4692 291.9223)" class="st1 st2 st3">10,500</text>
			<text transform="matrix(1 0 0 1 31.4692 192.2543)" class="st1 st2 st3">15,750</text>
			<text transform="matrix(1 0 0 1 31.4692 92.5864)" class="st1 st2 st3">21,000</text>
		</g>
		<line class="st0" x1="102.4" y1="480.1" x2="102.4" y2="81.5"/>
		<g>
			<g>
			</g>
			<g>
			</g>
		</g>
	</g>
	<g>
		<g>
			<g>
				<rect x="715.6" y="90.3" class="st4" width="15" height="389.8"/>
				<rect x="645.2" y="277.1" class="st4" width="15" height="203.1"/>
				<rect x="574.8" y="280.4" class="st4" width="15" height="199.7"/>
				<rect x="504.5" y="306" class="st4" width="15" height="174.1"/>
				<rect x="434.1" y="307.7" class="st4" width="15" height="172.4"/>
				<rect x="363.7" y="373.6" class="st4" width="15" height="106.5"/>
				<rect x="293.3" y="369.9" class="st4" width="15" height="110.2"/>
				<rect x="222.9" y="460.8" class="st4" width="15" height="19.4"/>
				<rect x="152.5" y="461.9" class="st4" width="15" height="18.2"/>
			</g>
		</g>
		<g>
			<g>
				<rect x="700.7" y="113.2" class="st5" width="15" height="366.9"/>
				<rect x="630.3" y="287.4" class="st5" width="15" height="192.8"/>
				<rect x="559.9" y="294.9" class="st5" width="15" height="185.2"/>
				<rect x="489.5" y="316.2" class="st5" width="15" height="163.9"/>
				<rect x="419.1" y="318" class="st5" width="15" height="162.1"/>
				<rect x="348.7" y="378.2" class="st5" width="15" height="101.9"/>
				<rect x="278.3" y="376.2" class="st5" width="15" height="103.9"/>
				<rect x="207.9" y="461.8" class="st5" width="15" height="18.3"/>
				<rect x="137.5" y="462.6" class="st5" width="15" height="17.5"/>
			</g>
		</g>
		<g>
			<g>
				<rect x="685.7" y="137.2" class="st6" width="15" height="342.9"/>
				<rect x="615.3" y="302.1" class="st6" width="15" height="178"/>
				<rect x="544.9" y="309.3" class="st6" width="15" height="170.8"/>
				<rect x="474.5" y="327.1" class="st6" width="15" height="153.1"/>
				<rect x="404.1" y="330.8" class="st6" width="15" height="149.3"/>
				<rect x="333.8" y="383.5" class="st6" width="15" height="96.7"/>
				<rect x="263.4" y="383.8" class="st6" width="15" height="96.3"/>
				<rect x="193" y="464.1" class="st6" width="15" height="16"/>
				<rect x="122.6" y="463.4" class="st6" width="15" height="16.7"/>
			</g>
		</g>
		<g>
			<g>
				<rect x="670.8" y="163.2" class="st7" width="15" height="317"/>
				<rect x="600.4" y="315.5" class="st7" width="15" height="164.6"/>
				<rect x="530" y="320.8" class="st7" width="15" height="159.3"/>
				<rect x="459.6" y="337.5" class="st7" width="15" height="142.6"/>
				<rect x="389.2" y="342.7" class="st7" width="15" height="137.4"/>
				<rect x="318.8" y="389.7" class="st7" width="15" height="90.4"/>
				<rect x="248.4" y="391.5" class="st7" width="15" height="88.6"/>
				<rect x="178" y="466.7" class="st7" width="15" height="13.4"/>
				<rect x="107.6" y="464.3" class="st7" width="15" height="15.8"/>
			</g>
		</g>
	</g>
	<g>
		<g>
		</g>
		<g>
		</g>
		<g>
		</g>
		<g>
		</g>
	</g>
</g>
<rect x="270.2" y="510.6" class="st8" width="21.7" height="94.7"/>
<text transform="matrix(4.489659e-11 -1 1 4.489659e-11 284.9689 605.332)" class="st9 st2 st10">Harburg</text>
<rect x="340.7" y="491.3" class="st8" width="21.7" height="110.4"/>
<text transform="matrix(4.489659e-11 -1 1 4.489659e-11 355.4538 601.7207)" class="st9 st2 st10">Bergedorf</text>
<rect x="400.6" y="494" class="st8" width="46.5" height="110.4"/>
<text transform="matrix(4.489659e-11 -1 1 4.489659e-11 415.3616 604.332)"><tspan x="0" y="0" class="st9 st2 st10">Hamburg-</tspan><tspan x="0" y="22" class="st9 st2 st10">Mitte</tspan></text>
<rect x="474.9" y="495" class="st8" width="21.7" height="110.4"/>
<text transform="matrix(4.489659e-11 -1 1 4.489659e-11 489.6528 605.332)" class="st9 st2 st10">Eimsbüttel</text>
<rect x="549.5" y="497.6" class="st8" width="21.7" height="105.1"/>
<text transform="matrix(4.489659e-11 -1 1 4.489659e-11 564.2562 602.7207)" class="st9 st2 st10">Altona</text>
<rect x="614.3" y="494" class="st8" width="43.1" height="110.4"/>
<text transform="matrix(4.489659e-11 -1 1 4.489659e-11 629.0485 604.332)"><tspan x="0" y="0" class="st9 st2 st10">Hamburg-</tspan><tspan x="0" y="22" class="st9 st2 st10">Nord</tspan></text>
<rect x="693.3" y="494" class="st8" width="21.7" height="110.4"/>
<text transform="matrix(4.489659e-11 -1 1 4.489659e-11 708.0609 604.332)" class="st9 st2 st10">Wandsbek</text>
<rect x="201" y="491.3" class="st8" width="21.7" height="112.8"/>
<text transform="matrix(4.489659e-11 -1 1 4.489659e-11 215.6699 604.1328)" class="st9 st2 st10">Unbekannt</text>
<rect x="114.9" y="502" class="st8" width="49.2" height="110.2"/>
<text transform="matrix(4.489659e-11 -1 1 4.489659e-11 129.5894 612.1328)"><tspan x="0" y="0" class="st9 st2 st10">Ungültiger</tspan><tspan x="0" y="22" class="st9 st2 st10">Ortsteil</tspan></text>
</svg>
